<svg width="512" height="512" viewBox="0 0 512 512" fill="none" xmlns="http://www.w3.org/2000/svg">
<g clip-path="url(#clip0_31_2)">
<path d="M255.979 0C114.635 0 0 114.635 0 255.979C0 397.322 114.635 511.957 255.979 511.957C397.322 511.957 511.957 397.322 511.957 255.979C511.957 114.635 397.365 0 255.979 0ZM278.571 416.185H233.386V190.301H278.571V416.185ZM255.979 150.175C239.345 150.175 225.841 136.671 225.841 120.037C225.841 103.403 239.345 89.899 255.979 89.899C272.612 89.899 286.116 103.403 286.116 120.037C286.116 136.671 272.612 150.175 255.979 150.175Z" fill="#ffffff"/>
</g>
<defs>
<clipPath id="clip0_31_2">
<rect width="512" height="512" fill="white"/>
</clipPath>
</defs>
</svg>
